# xmcd
#
# Track frame offsets:
#	150
#	11743
#	23696
#	49811
#	58913
#	76588
#	115158
#	126625
#	142618
#	174804
#	200927
#	215687
#	225223
#	237033
#	250211
#	261676
#	270416
#	287055
#	301225
#	312850
#	324916
#
# Disc length: 4581 seconds
#
# Revision: 0
# Processed by: cddbd v1.5.2PL0 Copyright (c) Steve Scherf et al.
# Submitted via: EasyCDDAExtractor 15.3.0.1
#
DISCID=2211e315
DTITLE=Homer And Jethro - Slaughter The Standards Cd 2
DYEAR=2013
DGENRE=Country
TTITLE0=Introduction (Live)
TTITLE1=Don't Let The Stars Get In Your Eyeballs (Live)
TTITLE2=Let Me Go Blubber-Fascination (Live)
TTITLE3=Sixteen Tons-Lullaby Of Bird Dog (Live)
TTITLE4=C-Jam Blues (Live)
TTITLE5=Billboard Song (Live)
TTITLE6=Yaller Rose Of Texas You All (Live)
TTITLE7=San Antonio Rose-Battle Of Kookamonga (Live)
TTITLE8=How Much Is That) Hound Dog In The Window-Skater's Waltz (Live)
TTITLE9=Hart Brake Hotel (Live)
TTITLE10=Among My Souvenirs (Live)
TTITLE11=Sweet Violets (Live)
TTITLE12=Come Here Little Wifey (Live)
TTITLE13=Tattooed Lady (Live)
TTITLE14=Please Help Me I'm Falling (Live)
TTITLE15=How Come There's No Dog Day (Live)
TTITLE16=I Love Your Pizza (Live)
TTITLE17=Don't Jump Off The Roof Dad (Live)
TTITLE18=Will You Love Me When (Live)
TTITLE19=Bitten On The Udder By An Adder (Live)
TTITLE20=In The Shade Of The Old Apple Tree (Live)
EXTD=
EXTT0=
EXTT1=
EXTT2=
EXTT3=
EXTT4=
EXTT5=
EXTT6=
EXTT7=
EXTT8=
EXTT9=
EXTT10=
EXTT11=
EXTT12=
EXTT13=
EXTT14=
EXTT15=
EXTT16=
EXTT17=
EXTT18=
EXTT19=
EXTT20=
PLAYORDER=
